<?xml version="1.0" standalone="no"?>
<!DOCTYPE svg PUBLIC "-//W3C//DTD SVG 20010904//EN"
 "http://www.w3.org/TR/2001/REC-SVG-20010904/DTD/svg10.dtd">
<svg version="1.0" xmlns="http://www.w3.org/2000/svg"
 width="1024.000000pt" height="1024.000000pt" viewBox="0 0 1024.000000 1024.000000"
 preserveAspectRatio="xMidYMid meet">

<g transform="translate(0.000000,1024.000000) scale(0.100000,-0.100000)"
fill="#000000" stroke="none">
<path d="M0 5120 l0 -5120 5120 0 5120 0 0 5120 0 5120 -5120 0 -5120 0 0
-5120z m5315 3806 c60 -28 102 -71 115 -117 6 -20 10 -254 10 -582 0 -595 2
-573 -57 -629 -65 -62 46 -58 -1648 -58 -1382 0 -1548 1 -1582 15 -48 20 -80
50 -104 98 -19 36 -20 60 -17 600 l3 562 25 35 c35 50 59 68 110 84 38 12 272
15 1570 15 l1525 1 50 -24z m1635 -230 c0 -12 10 -38 23 -57 53 -78 174 -105
237 -53 l31 27 29 -28 c27 -25 28 -30 15 -45 -27 -30 -46 -91 -40 -124 17 -77
92 -156 150 -156 11 0 15 -11 15 -44 0 -43 -1 -44 -37 -50 -106 -17 -162 -161
-99 -256 l28 -43 -26 -26 c-19 -19 -30 -23 -40 -16 -58 43 -68 47 -115 47 -27
-1 -63 -8 -79 -16 -43 -22 -90 -81 -98 -121 -6 -32 -9 -35 -39 -35 -29 0 -33
3 -39 35 -21 111 -176 174 -271 109 l-38 -25 -25 25 c-24 23 -25 27 -10 43 81
89 25 259 -94 287 -23 5 -28 12 -28 39 0 29 5 34 50 55 61 28 100 82 107 146
7 56 0 85 -28 114 l-21 23 23 25 c27 29 34 30 66 4 38 -30 123 -27 179 5 45
27 84 79 84 114 0 18 6 21 45 21 41 0 45 -2 45 -24z m1062 -2325 c5 -78 41
-131 111 -166 83 -41 147 -30 235 42 l44 36 50 -51 51 -50 -41 -49 c-64 -76
-78 -136 -46 -211 33 -81 111 -131 202 -132 l52 0 0 -80 0 -80 -53 0 c-138 0
-246 -134 -208 -260 6 -20 30 -58 53 -84 l41 -48 -56 -56 -56 -55 -41 37 c-75
68 -156 84 -228 47 -79 -41 -112 -94 -112 -181 l0 -50 -75 0 -75 0 0 45 c0
138 -151 243 -274 191 -19 -8 -53 -31 -76 -52 l-41 -37 -57 56 -56 57 31 32
c40 41 73 112 73 158 0 74 -59 154 -137 187 -18 7 -55 13 -83 13 l-50 0 0 80
0 80 53 0 c68 0 131 32 174 88 61 80 51 187 -24 264 l-37 38 49 50 c27 28 53
50 58 50 5 0 27 -16 50 -35 50 -43 130 -70 179 -61 90 17 168 111 168 203 l0
43 74 0 74 0 4 -59z m-3542 -2927 c0 -5 -191 -362 -568 -1059 l-130 -240
-1181 -3 c-650 -1 -1181 -1 -1181 1 0 1 70 133 155 292 85 160 241 453 347
653 l192 362 1183 0 c651 0 1183 -3 1183 -6z m810 -214 c0 -52 61 -121 128
-144 45 -16 88 -13 134 10 25 13 28 12 52 -17 30 -36 31 -42 10 -60 -86 -72
-35 -247 78 -265 29 -5 38 -11 34 -21 -4 -8 -6 -30 -6 -49 0 -33 -1 -34 -42
-34 -128 -1 -230 -125 -194 -236 5 -17 0 -24 -34 -39 l-39 -18 -40 36 c-78 71
-193 71 -271 1 -37 -34 -40 -35 -66 -21 -27 14 -28 18 -29 90 0 68 -3 79 -31
114 -39 49 -87 73 -145 73 -50 0 -59 9 -59 58 0 23 8 31 50 50 99 45 134 162
75 250 l-28 43 26 26 c23 24 28 25 56 13 46 -19 117 -14 156 10 43 27 83 74
91 108 10 40 12 42 55 42 33 0 39 -3 39 -20z m2298 -141 c-32 -16 -58 -33 -58
-37 0 -5 -6 -9 -13 -9 -14 0 -167 -72 -167 -79 0 -5 78 -54 85 -54 4 0 3 5 -1
12 -4 7 -3 8 5 4 6 -4 9 -11 7 -15 -7 -10 52 -44 63 -37 5 4 17 3 26 0 12 -5
13 -9 5 -14 -7 -5 6 -17 35 -33 l47 -27 39 21 c24 12 37 24 33 31 -4 7 -3 8 4
4 11 -6 98 37 186 92 l40 25 -78 38 c-43 21 -83 37 -89 35 -7 -1 -9 -1 -4 1 4
3 4 9 1 14 -3 5 37 -12 90 -38 53 -26 92 -51 88 -55 -4 -3 -74 -46 -156 -93
l-149 -87 -41 23 c-119 66 -257 151 -252 156 10 10 291 152 301 152 6 0 -16
-13 -47 -30z m112 11 c22 -11 40 -23 40 -25 0 -5 -79 32 -89 41 -11 10 14 2
49 -16z m532 -287 c37 -20 66 -39 64 -41 -2 -2 -56 26 -119 61 -89 49 -119 62
-133 55 -18 -9 -18 -9 0 6 17 14 23 12 70 -15 28 -16 81 -46 118 -66z m-881 1
c79 -47 145 -87 146 -88 3 -2 -258 -156 -305 -180 l-33 -17 -143 81 c-153 86
-188 109 -169 110 6 0 15 -5 18 -10 4 -6 11 -8 16 -5 5 4 9 2 9 -4 0 -15 58
-43 72 -35 7 4 8 3 4 -4 -8 -14 30 -36 46 -26 7 4 8 3 4 -4 -4 -7 -2 -12 3
-12 6 0 11 6 12 13 0 9 2 9 6 0 2 -7 4 -16 4 -20 0 -8 108 -73 122 -73 5 0 5
4 2 10 -3 5 0 8 7 5 14 -6 140 64 133 75 -2 3 5 7 16 7 11 1 51 21 89 44 l69
43 -32 21 c-18 12 -59 37 -92 55 -33 18 -71 41 -85 50 -64 44 -55 46 -236 -47
-93 -47 -166 -82 -161 -78 7 9 317 173 328 174 3 1 70 -38 150 -85z m669 61
c0 -2 -13 -11 -30 -20 -38 -19 -40 -11 -2 9 31 17 32 18 32 11z m-82 -49 c-10
-7 -14 -17 -10 -21 4 -5 2 -6 -3 -2 -14 7 -127 -57 -118 -67 5 -4 4 -7 -2 -6
-49 10 -44 -14 10 -46 25 -14 45 -28 45 -31 0 -3 -99 49 -118 62 -3 3 201 125
208 125 3 -1 -3 -7 -12 -14z m247 -16 c3 -5 1 -10 -4 -10 -6 0 -11 5 -11 10 0
6 2 10 4 10 3 0 8 -4 11 -10z m213 -88 c10 -7 4 -15 -23 -31 -43 -25 -42 -25
-42 -7 0 8 6 12 15 8 10 -3 13 -1 8 6 -4 8 -2 10 7 6 8 -3 18 -1 22 5 10 16
-23 25 -40 11 -10 -9 -15 -9 -15 -1 0 6 6 11 13 11 6 0 1 10 -13 21 l-25 20
40 -20 c22 -11 46 -24 53 -29z m-83 -61 c-6 -5 -61 -37 -123 -71 l-113 -63
-40 18 c-22 10 -43 23 -46 28 -3 6 -2 8 3 5 5 -3 26 -13 47 -23 l37 -17 118
66 c117 65 134 74 117 57z m-646 -32 c65 -41 66 -49 2 -12 l-50 27 -45 -22
c-26 -12 -46 -26 -46 -32 0 -5 -3 -9 -7 -8 -11 4 -153 -76 -182 -101 -13 -12
-29 -21 -35 -21 -11 -1 33 -29 46 -30 4 0 5 9 3 20 -2 11 0 22 4 25 5 2 11 -6
13 -20 3 -13 0 -26 -5 -28 -6 -2 15 -18 46 -35 31 -18 57 -35 57 -38 0 -3 -28
11 -62 31 -35 20 -78 43 -95 52 -30 15 -44 33 -25 33 4 0 79 43 167 94 88 52
161 95 162 95 1 1 24 -13 52 -30z m296 -34 c11 -9 -2 -5 -30 10 -27 15 -54 32
-60 37 -15 16 67 -28 90 -47z m565 -152 l0 -198 -133 -75 c-72 -41 -156 -87
-184 -103 l-53 -29 0 200 0 200 178 100 c97 55 180 101 185 101 4 1 7 -88 7
-196z m-1600 85 l180 -103 0 -203 0 -203 -42 25 c-24 14 -106 61 -183 104
l-140 80 -3 201 c-1 110 0 201 3 201 3 0 86 -46 185 -102z m903 2 c32 -18 56
-34 54 -37 -5 -5 -157 86 -157 94 0 3 10 -1 23 -9 12 -8 48 -30 80 -48z m-383
-14 c0 -2 -7 -7 -16 -10 -8 -3 -12 -2 -9 4 6 10 25 14 25 6z m500 -56 c0 -3
-24 -18 -53 -33 -37 -20 -45 -23 -27 -8 14 11 33 23 43 27 17 5 17 7 2 25 -17
18 -16 18 9 6 14 -7 26 -14 26 -17z m-110 -64 c0 -4 -218 -126 -226 -126 -3 0
-35 16 -71 36 -54 31 -62 39 -48 47 11 6 21 5 28 -3 9 -8 8 -10 -5 -5 -28 11
-21 -3 10 -19 15 -8 40 -12 56 -9 26 5 28 4 23 -16 -6 -25 11 -28 39 -5 18 15
18 15 -3 9 -13 -4 -23 -2 -23 4 0 5 12 8 28 6 18 -2 51 10 102 40 72 41 90 50
90 41z m-300 -26 c0 -5 -2 -10 -4 -10 -3 0 -8 5 -11 10 -3 6 -1 10 4 10 6 0
11 -4 11 -10z m510 -192 l0 -203 -133 -74 c-72 -41 -153 -87 -180 -103 -26
-15 -49 -28 -52 -28 -2 0 -3 91 -2 201 l2 202 85 48 c47 27 91 46 98 44 7 -3
11 -1 8 3 -3 6 133 94 172 111 1 1 2 -90 2 -201z m-642 77 l172 -97 0 -199 c0
-110 -3 -199 -7 -199 -3 0 -68 35 -142 77 -75 42 -153 86 -173 97 l-38 21 0
203 c0 112 3 201 8 199 4 -2 85 -48 180 -102z m1122 -353 l0 -207 -107 -60
c-59 -33 -143 -79 -185 -103 l-78 -43 2 207 3 207 80 47 c111 64 279 160 283
160 1 0 2 -93 2 -208z m-1600 99 l175 -98 3 -212 c1 -117 -1 -211 -6 -209 -4
1 -88 50 -185 107 l-177 103 0 204 c0 112 3 204 8 204 4 0 86 -45 182 -99z
m552 -311 l98 -55 0 -217 0 -218 -47 28 c-27 16 -108 64 -180 106 l-133 78 0
213 0 213 83 -47 c45 -26 126 -71 179 -101z m568 -57 l-1 -208 -177 -100 c-97
-55 -180 -101 -183 -103 -4 -2 -6 91 -5 205 l1 208 180 102 c99 57 181 103
183 103 1 0 2 -93 2 -207z"/>
<path d="M2343 8933 c15 -2 37 -2 50 0 12 2 0 4 -28 4 -27 0 -38 -2 -22 -4z"/>
<path d="M2663 8933 c15 -2 37 -2 50 0 12 2 0 4 -28 4 -27 0 -38 -2 -22 -4z"/>
<path d="M2778 8933 c23 -2 59 -2 80 0 20 2 1 4 -43 4 -44 0 -61 -2 -37 -4z"/>
<path d="M3073 8933 c26 -2 67 -2 90 0 23 2 2 3 -48 3 -49 0 -68 -1 -42 -3z"/>
<path d="M3238 8933 c7 -3 16 -2 19 1 4 3 -2 6 -13 5 -11 0 -14 -3 -6 -6z"/>
<path d="M3403 8933 c9 -2 25 -2 35 0 9 3 1 5 -18 5 -19 0 -27 -2 -17 -5z"/>
<path d="M3543 8933 c9 -2 25 -2 35 0 9 3 1 5 -18 5 -19 0 -27 -2 -17 -5z"/>
<path d="M3608 8933 c6 -2 18 -2 25 0 6 3 1 5 -13 5 -14 0 -19 -2 -12 -5z"/>
<path d="M3677 8933 c18 -2 50 -2 70 0 21 2 7 4 -32 4 -38 0 -55 -2 -38 -4z"/>
<path d="M3833 8933 c15 -2 39 -2 55 0 15 2 2 4 -28 4 -30 0 -43 -2 -27 -4z"/>
<path d="M4027 8933 c18 -2 50 -2 70 0 21 2 7 4 -32 4 -38 0 -55 -2 -38 -4z"/>
<path d="M4153 8933 c9 -2 23 -2 30 0 6 3 -1 5 -18 5 -16 0 -22 -2 -12 -5z"/>
<path d="M4288 8933 c7 -3 16 -2 19 1 4 3 -2 6 -13 5 -11 0 -14 -3 -6 -6z"/>
<path d="M4328 8933 c7 -3 16 -2 19 1 4 3 -2 6 -13 5 -11 0 -14 -3 -6 -6z"/>
<path d="M4368 8933 c7 -3 16 -2 19 1 4 3 -2 6 -13 5 -11 0 -14 -3 -6 -6z"/>
<path d="M4408 8933 c7 -3 16 -2 19 1 4 3 -2 6 -13 5 -11 0 -14 -3 -6 -6z"/>
<path d="M4498 8933 c23 -2 59 -2 80 0 20 2 1 4 -43 4 -44 0 -61 -2 -37 -4z"/>
<path d="M4658 8933 c12 -2 30 -2 40 0 9 3 -1 5 -23 4 -22 0 -30 -2 -17 -4z"/>
<path d="M4738 8933 c12 -2 30 -2 40 0 9 3 -1 5 -23 4 -22 0 -30 -2 -17 -4z"/>
<path d="M4823 8933 c15 -2 37 -2 50 0 12 2 0 4 -28 4 -27 0 -38 -2 -22 -4z"/>
<path d="M4928 8933 c17 -2 47 -2 65 0 17 2 3 4 -33 4 -36 0 -50 -2 -32 -4z"/>
<path d="M5063 8933 c15 -2 39 -2 55 0 15 2 2 4 -28 4 -30 0 -43 -2 -27 -4z"/>
<path d="M6863 8459 c-98 -19 -172 -83 -198 -175 -35 -118 27 -244 145 -296
53 -24 156 -21 207 5 121 63 170 214 109 336 -48 94 -160 150 -263 130z"/>
<path d="M7890 5999 c-114 -13 -212 -89 -246 -191 -21 -64 -16 -177 11 -233
27 -55 97 -122 153 -148 63 -28 180 -30 237 -3 109 52 172 140 182 254 7 88
-14 154 -69 217 -67 76 -169 116 -268 104z"/>
<path d="M5172 2991 c-184 -64 -206 -300 -37 -393 92 -50 194 -31 267 50 68
75 73 172 15 259 -56 83 -154 117 -245 84z"/>
<path d="M7565 2300 c3 -5 11 -10 16 -10 6 0 7 5 4 10 -3 6 -11 10 -16 10 -6
0 -7 -4 -4 -10z"/>
</g>
</svg>
